<svg width="599" height="599" viewBox="0 0 599 599" fill="none" xmlns="http://www.w3.org/2000/svg">
<g id="Tiktok-mono">
<rect x="27" y="27" width="544.578" height="544.578" rx="127" stroke="#64748B" stroke-width="53"/>
<path id="Vector" d="M306.634 136.273C324.413 136 342.061 136.142 359.698 136C360.285 158.148 369.234 178.083 383.472 192.848L383.45 192.826C398.774 206.687 418.714 215.673 440.696 217.199L441 217.221V272.139C420.235 271.616 400.708 266.807 383.103 258.54L383.993 258.911C375.479 254.8 368.278 250.58 361.436 245.869L362.001 246.24C361.871 286.032 362.131 325.825 361.729 365.476C360.611 385.683 353.921 404.113 343.191 419.5L343.408 419.162C325.466 444.963 296.404 461.899 263.355 462.902H263.203C261.867 462.967 260.293 463 258.707 463C239.918 463 222.357 457.744 207.391 448.616L207.826 448.867C180.588 432.411 161.799 404.254 158.324 371.506L158.28 371.059C158.009 364.244 157.878 357.428 158.15 350.754C163.471 298.639 206.957 258.322 259.815 258.322C265.755 258.322 271.577 258.835 277.235 259.805L276.627 259.718C276.898 279.882 276.084 300.056 276.084 320.22C271.49 318.551 266.19 317.581 260.662 317.581C240.374 317.581 223.117 330.601 216.731 348.78L216.633 349.107C215.189 353.764 214.353 359.118 214.353 364.658C214.353 366.904 214.494 369.129 214.755 371.31L214.733 371.048C218.339 393.36 237.388 410.198 260.358 410.198C261.02 410.198 261.672 410.187 262.323 410.154H262.226C278.115 409.674 291.907 401.092 299.705 388.409L299.814 388.213C302.714 384.156 304.701 379.249 305.364 373.916L305.374 373.764C306.732 349.369 306.189 325.116 306.319 300.721C306.45 245.803 306.189 191.016 306.591 136.24L306.634 136.273Z" fill="#64748B"/>
</g>
</svg>
